<mxfile host="www.draw.io" modified="2020-02-12T08:01:49.386Z" agent="Mozilla/5.0 (X11; Linux x86_64) AppleWebKit/537.36 (KHTML, like Gecko) Chrome/80.0.3987.87 Safari/537.36" etag="pLWZwrVGH5SVbxbJzsUS" version="12.6.7" type="github">
  <diagram id="Rcd-lYa-Og5x9bV4wF2M" name="Page-1">
    <mxGraphModel dx="1185" dy="672" grid="1" gridSize="10" guides="1" tooltips="1" connect="1" arrows="1" fold="1" page="1" pageScale="1" pageWidth="1100" pageHeight="850" math="0" shadow="0">
      <root>
        <mxCell id="0"/>
        <mxCell id="1" parent="0"/>
        <mxCell id="uG0OPi7SAyHWpeF-NSaY-43" value="&amp;nbsp;request untuk insert data" style="html=1;verticalAlign=bottom;endArrow=block;" edge="1" parent="1">
          <mxGeometry width="80" relative="1" as="geometry">
            <mxPoint x="570" y="439" as="sourcePoint"/>
            <mxPoint x="860" y="439" as="targetPoint"/>
          </mxGeometry>
        </mxCell>
        <mxCell id="uG0OPi7SAyHWpeF-NSaY-34" value="Alt" style="shape=umlFrame;whiteSpace=wrap;html=1;strokeWidth=2;" vertex="1" parent="1">
          <mxGeometry x="80" y="408" width="810" height="310" as="geometry"/>
        </mxCell>
        <mxCell id="uG0OPi7SAyHWpeF-NSaY-1" value="Management Gudang" style="shape=umlActor;verticalLabelPosition=bottom;labelBackgroundColor=#ffffff;verticalAlign=top;html=1;outlineConnect=0;" vertex="1" parent="1">
          <mxGeometry x="150" y="40" width="30" height="60" as="geometry"/>
        </mxCell>
        <mxCell id="uG0OPi7SAyHWpeF-NSaY-8" value="" style="group" vertex="1" connectable="0" parent="1">
          <mxGeometry x="550" y="40" width="370" height="770" as="geometry"/>
        </mxCell>
        <mxCell id="uG0OPi7SAyHWpeF-NSaY-31" value="Validasi input" style="edgeStyle=orthogonalEdgeStyle;html=1;align=left;spacingLeft=2;endArrow=block;rounded=0;" edge="1" parent="uG0OPi7SAyHWpeF-NSaY-8" source="uG0OPi7SAyHWpeF-NSaY-6">
          <mxGeometry relative="1" as="geometry">
            <mxPoint x="65" y="300" as="sourcePoint"/>
            <Array as="points">
              <mxPoint x="90" y="300"/>
              <mxPoint x="90" y="340"/>
            </Array>
            <mxPoint x="35" y="340" as="targetPoint"/>
          </mxGeometry>
        </mxCell>
        <mxCell id="uG0OPi7SAyHWpeF-NSaY-6" value="" style="shape=umlLifeline;participant=umlBoundary;perimeter=lifelinePerimeter;whiteSpace=wrap;html=1;container=1;collapsible=0;recursiveResize=0;verticalAlign=top;spacingTop=36;labelBackgroundColor=#ffffff;outlineConnect=0;size=70;" vertex="1" parent="uG0OPi7SAyHWpeF-NSaY-8">
          <mxGeometry x="-30" width="90" height="770" as="geometry"/>
        </mxCell>
        <mxCell id="uG0OPi7SAyHWpeF-NSaY-7" value="Tambah Data Satuan unit" style="text;html=1;strokeColor=none;fillColor=none;align=center;verticalAlign=middle;whiteSpace=wrap;rounded=0;" vertex="1" parent="uG0OPi7SAyHWpeF-NSaY-6">
          <mxGeometry x="23.75" y="22" width="56.25" height="30" as="geometry"/>
        </mxCell>
        <mxCell id="uG0OPi7SAyHWpeF-NSaY-44" value="" style="html=1;points=[];perimeter=orthogonalPerimeter;" vertex="1" parent="uG0OPi7SAyHWpeF-NSaY-6">
          <mxGeometry x="45" y="170" width="10" height="570" as="geometry"/>
        </mxCell>
        <mxCell id="P45chUzkG9_80fgO4lDG-2" value="Database" style="shape=umlLifeline;perimeter=lifelinePerimeter;whiteSpace=wrap;html=1;container=1;collapsible=0;recursiveResize=0;outlineConnect=0;" parent="uG0OPi7SAyHWpeF-NSaY-8" vertex="1">
          <mxGeometry x="270" width="100" height="770" as="geometry"/>
        </mxCell>
        <mxCell id="uG0OPi7SAyHWpeF-NSaY-46" value="" style="html=1;points=[];perimeter=orthogonalPerimeter;" vertex="1" parent="P45chUzkG9_80fgO4lDG-2">
          <mxGeometry x="45" y="350" width="10" height="250" as="geometry"/>
        </mxCell>
        <mxCell id="uG0OPi7SAyHWpeF-NSaY-30" value="" style="html=1;points=[];perimeter=orthogonalPerimeter;" vertex="1" parent="uG0OPi7SAyHWpeF-NSaY-8">
          <mxGeometry x="25" y="320" width="10" height="40" as="geometry"/>
        </mxCell>
        <mxCell id="uG0OPi7SAyHWpeF-NSaY-10" value="" style="endArrow=none;dashed=1;html=1;" edge="1" parent="1">
          <mxGeometry width="50" height="50" relative="1" as="geometry">
            <mxPoint x="164" y="810" as="sourcePoint"/>
            <mxPoint x="165" y="120" as="targetPoint"/>
          </mxGeometry>
        </mxCell>
        <mxCell id="uG0OPi7SAyHWpeF-NSaY-12" value="Mengakses Halaman Manajemen data satuan unit" style="html=1;verticalAlign=bottom;endArrow=block;" edge="1" parent="1" source="uG0OPi7SAyHWpeF-NSaY-23">
          <mxGeometry x="-0.0255" width="80" relative="1" as="geometry">
            <mxPoint x="166" y="160" as="sourcePoint"/>
            <mxPoint x="420.5" y="160" as="targetPoint"/>
            <mxPoint as="offset"/>
          </mxGeometry>
        </mxCell>
        <mxCell id="uG0OPi7SAyHWpeF-NSaY-16" value="&lt;font style=&quot;font-size: 11px&quot;&gt;Menampilkan Halaman Manajemen data satuan unit&lt;/font&gt;" style="html=1;verticalAlign=bottom;endArrow=block;dashed=1;" edge="1" parent="1">
          <mxGeometry x="-0.0216" width="80" relative="1" as="geometry">
            <mxPoint x="424.5" y="200" as="sourcePoint"/>
            <mxPoint x="170" y="200" as="targetPoint"/>
            <mxPoint x="1" as="offset"/>
          </mxGeometry>
        </mxCell>
        <mxCell id="uG0OPi7SAyHWpeF-NSaY-23" value="" style="html=1;points=[];perimeter=orthogonalPerimeter;" vertex="1" parent="1">
          <mxGeometry x="159" y="120" width="10" height="660" as="geometry"/>
        </mxCell>
        <mxCell id="uG0OPi7SAyHWpeF-NSaY-4" value="" style="shape=umlLifeline;participant=umlBoundary;perimeter=lifelinePerimeter;whiteSpace=wrap;html=1;container=1;collapsible=0;recursiveResize=0;verticalAlign=top;spacingTop=36;labelBackgroundColor=#ffffff;outlineConnect=0;size=70;" vertex="1" parent="1">
          <mxGeometry x="380" y="40" width="90" height="790" as="geometry"/>
        </mxCell>
        <mxCell id="uG0OPi7SAyHWpeF-NSaY-5" value="Manajemen data Satuan Unit" style="text;html=1;strokeColor=none;fillColor=none;align=center;verticalAlign=middle;whiteSpace=wrap;rounded=0;" vertex="1" parent="uG0OPi7SAyHWpeF-NSaY-4">
          <mxGeometry x="33" y="25" width="40" height="20" as="geometry"/>
        </mxCell>
        <mxCell id="uG0OPi7SAyHWpeF-NSaY-21" value="" style="html=1;verticalAlign=bottom;endArrow=block;" edge="1" parent="uG0OPi7SAyHWpeF-NSaY-4">
          <mxGeometry x="-0.0255" width="80" relative="1" as="geometry">
            <mxPoint x="-210" y="200" as="sourcePoint"/>
            <mxPoint x="184.5" y="200" as="targetPoint"/>
            <mxPoint as="offset"/>
          </mxGeometry>
        </mxCell>
        <mxCell id="uG0OPi7SAyHWpeF-NSaY-22" value="&lt;font style=&quot;font-size: 11px&quot;&gt;Tekan tombol tambah data&lt;/font&gt;" style="text;html=1;align=center;verticalAlign=middle;resizable=0;points=[];labelBackgroundColor=#ffffff;" vertex="1" connectable="0" parent="uG0OPi7SAyHWpeF-NSaY-21">
          <mxGeometry x="-0.2119" y="9" relative="1" as="geometry">
            <mxPoint x="7" as="offset"/>
          </mxGeometry>
        </mxCell>
        <mxCell id="uG0OPi7SAyHWpeF-NSaY-24" value="" style="html=1;verticalAlign=bottom;endArrow=block;" edge="1" parent="uG0OPi7SAyHWpeF-NSaY-4">
          <mxGeometry x="-0.0255" width="80" relative="1" as="geometry">
            <mxPoint x="-210" y="280" as="sourcePoint"/>
            <mxPoint x="184.5" y="280" as="targetPoint"/>
            <mxPoint as="offset"/>
          </mxGeometry>
        </mxCell>
        <mxCell id="uG0OPi7SAyHWpeF-NSaY-25" value="&lt;font style=&quot;font-size: 11px&quot;&gt;input data kategori unit&lt;/font&gt;" style="text;html=1;align=center;verticalAlign=middle;resizable=0;points=[];labelBackgroundColor=#ffffff;" vertex="1" connectable="0" parent="uG0OPi7SAyHWpeF-NSaY-24">
          <mxGeometry x="-0.2119" y="9" relative="1" as="geometry">
            <mxPoint x="15" as="offset"/>
          </mxGeometry>
        </mxCell>
        <mxCell id="uG0OPi7SAyHWpeF-NSaY-35" value="[Invalid Input]" style="text;html=1;strokeColor=none;fillColor=none;align=center;verticalAlign=middle;whiteSpace=wrap;rounded=0;" vertex="1" parent="1">
          <mxGeometry x="80" y="670" width="79" height="30" as="geometry"/>
        </mxCell>
        <mxCell id="uG0OPi7SAyHWpeF-NSaY-36" value="" style="endArrow=none;dashed=1;html=1;exitX=0.004;exitY=0.781;exitDx=0;exitDy=0;exitPerimeter=0;" edge="1" parent="1" source="uG0OPi7SAyHWpeF-NSaY-34">
          <mxGeometry width="50" height="50" relative="1" as="geometry">
            <mxPoint x="167" y="651" as="sourcePoint"/>
            <mxPoint x="886" y="649" as="targetPoint"/>
          </mxGeometry>
        </mxCell>
        <mxCell id="uG0OPi7SAyHWpeF-NSaY-38" value="" style="html=1;verticalAlign=bottom;endArrow=block;dashed=1;" edge="1" parent="1">
          <mxGeometry x="-0.0255" width="80" relative="1" as="geometry">
            <mxPoint x="560" y="700" as="sourcePoint"/>
            <mxPoint x="170" y="700" as="targetPoint"/>
            <mxPoint as="offset"/>
          </mxGeometry>
        </mxCell>
        <mxCell id="uG0OPi7SAyHWpeF-NSaY-39" value="&lt;span style=&quot;font-size: 11px&quot;&gt;Menampilkan error message&lt;/span&gt;" style="text;html=1;align=center;verticalAlign=middle;resizable=0;points=[];labelBackgroundColor=#ffffff;" vertex="1" connectable="0" parent="uG0OPi7SAyHWpeF-NSaY-38">
          <mxGeometry x="-0.2119" y="9" relative="1" as="geometry">
            <mxPoint x="-29.5" y="-19" as="offset"/>
          </mxGeometry>
        </mxCell>
        <mxCell id="uG0OPi7SAyHWpeF-NSaY-41" value="[Valid Input]" style="text;html=1;strokeColor=none;fillColor=none;align=center;verticalAlign=middle;whiteSpace=wrap;rounded=0;" vertex="1" parent="1">
          <mxGeometry x="80" y="520" width="70" height="20" as="geometry"/>
        </mxCell>
        <mxCell id="uG0OPi7SAyHWpeF-NSaY-47" value="" style="html=1;verticalAlign=bottom;endArrow=block;dashed=1;" edge="1" parent="1">
          <mxGeometry x="-0.0255" width="80" relative="1" as="geometry">
            <mxPoint x="864.5" y="490" as="sourcePoint"/>
            <mxPoint x="570" y="490" as="targetPoint"/>
            <mxPoint as="offset"/>
          </mxGeometry>
        </mxCell>
        <mxCell id="uG0OPi7SAyHWpeF-NSaY-48" value="&lt;font style=&quot;font-size: 11px&quot;&gt;response data berhasil diinput&lt;/font&gt;" style="text;html=1;align=center;verticalAlign=middle;resizable=0;points=[];labelBackgroundColor=#ffffff;" vertex="1" connectable="0" parent="uG0OPi7SAyHWpeF-NSaY-47">
          <mxGeometry x="-0.2119" y="9" relative="1" as="geometry">
            <mxPoint x="-29.5" y="-19" as="offset"/>
          </mxGeometry>
        </mxCell>
        <mxCell id="uG0OPi7SAyHWpeF-NSaY-49" value="" style="html=1;verticalAlign=bottom;endArrow=block;" edge="1" parent="1">
          <mxGeometry width="80" relative="1" as="geometry">
            <mxPoint x="560" y="515" as="sourcePoint"/>
            <mxPoint x="424.5" y="515" as="targetPoint"/>
          </mxGeometry>
        </mxCell>
        <mxCell id="uG0OPi7SAyHWpeF-NSaY-50" value="redirect back" style="text;html=1;strokeColor=none;fillColor=none;align=center;verticalAlign=middle;whiteSpace=wrap;rounded=0;" vertex="1" parent="1">
          <mxGeometry x="450" y="494" width="100" height="20" as="geometry"/>
        </mxCell>
        <mxCell id="uG0OPi7SAyHWpeF-NSaY-17" value="" style="html=1;verticalAlign=bottom;endArrow=block;dashed=1;" edge="1" parent="1">
          <mxGeometry x="-0.0255" width="80" relative="1" as="geometry">
            <mxPoint x="564.5" y="280" as="sourcePoint"/>
            <mxPoint x="170" y="280" as="targetPoint"/>
            <mxPoint as="offset"/>
          </mxGeometry>
        </mxCell>
        <mxCell id="uG0OPi7SAyHWpeF-NSaY-18" value="&lt;font style=&quot;font-size: 11px&quot;&gt;Menampilkan&amp;nbsp;Halaman tambah Data&lt;/font&gt;" style="text;html=1;align=center;verticalAlign=middle;resizable=0;points=[];labelBackgroundColor=#ffffff;" vertex="1" connectable="0" parent="uG0OPi7SAyHWpeF-NSaY-17">
          <mxGeometry x="-0.2119" y="9" relative="1" as="geometry">
            <mxPoint x="-29.5" y="-19" as="offset"/>
          </mxGeometry>
        </mxCell>
        <mxCell id="uG0OPi7SAyHWpeF-NSaY-53" value="" style="html=1;verticalAlign=bottom;endArrow=block;entryX=1.1;entryY=0.671;entryDx=0;entryDy=0;entryPerimeter=0;" edge="1" parent="1" target="uG0OPi7SAyHWpeF-NSaY-23">
          <mxGeometry width="80" relative="1" as="geometry">
            <mxPoint x="425.5" y="562.58" as="sourcePoint"/>
            <mxPoint x="180" y="563" as="targetPoint"/>
          </mxGeometry>
        </mxCell>
        <mxCell id="uG0OPi7SAyHWpeF-NSaY-55" value="&lt;font style=&quot;font-size: 10px&quot;&gt;Menampilkan halaman manajemen data&lt;br&gt;&amp;amp; message data berhasil diinput&lt;/font&gt;" style="text;html=1;align=center;verticalAlign=middle;resizable=0;points=[];labelBackgroundColor=#ffffff;" vertex="1" connectable="0" parent="uG0OPi7SAyHWpeF-NSaY-53">
          <mxGeometry x="0.1194" y="-1" relative="1" as="geometry">
            <mxPoint x="17.83" y="-17.74" as="offset"/>
          </mxGeometry>
        </mxCell>
      </root>
    </mxGraphModel>
  </diagram>
</mxfile>
